<svg viewBox="0 0 400 300" width="100%" height="100%" xmlns="http://www.w3.org/2000/svg">
  <style>
    .stroke-main {
      fill: none;
      stroke: #5D5E98;
      stroke-width: 6;
      stroke-linecap: round;
      stroke-linejoin: round;
    }
    .fill-main {
      fill: #FFFFFF;
      stroke: #5D5E98;
      stroke-width: 6;
      stroke-linecap: round;
      stroke-linejoin: round;
    }
  </style>

  <path class="fill-main" d="M 240 145 L 375 120 A 6 6 0 0 1 377 132 L 242 157 Z" />

  <path class="stroke-main" d="M 135 205 Q 125 240 120 250 C 110 260, 100 245, 115 240" />
  <path class="stroke-main" d="M 200 195 Q 210 230 215 240 C 225 250, 235 235, 220 230" />

  <path class="fill-main" d="
    M 70 180
    C 40 180, 40 130, 75 135  
    C 65 95, 115 75, 140 105   
    C 140 50, 210 50, 215 105  
    C 245 75, 290 95, 270 135  
    C 305 130, 305 180, 260 175
    Q 170 225, 70 180 Z" 
  />

  <path class="stroke-main" d="M 80 170 Q 170 100, 265 160" />

  <path class="stroke-main" d="M 70 150 L 80 155" />
  <path class="stroke-main" d="M 110 110 L 120 130" />
  <path class="stroke-main" d="M 180 95 L 175 125" />
  <path class="stroke-main" d="M 245 120 L 235 145" />
  <path class="stroke-main" d="M 280 155 L 265 155" />

  <path class="stroke-main" d="M 130 155 L 145 163 L 130 171" />
  <path class="stroke-main" d="M 210 147 L 195 155 L 210 163" />
  <path class="stroke-main" d="M 160 170 Q 170 183 180 167" />

  <path class="fill-main" d="M 35 220 L 370 160 A 6 6 0 0 1 372 172 L 37 232 A 6 6 0 0 1 35 220 Z" />

  <path class="fill-main" d="M 130 195 C 120 230, 150 230, 145 192" />
  <path class="fill-main" d="M 175 188 C 165 223, 195 223, 190 183" />

</svg>
